<?xml version="1.0" encoding="UTF-8" ?>
<svg version="1.1" width="40" height="40" xmlns="http://www.w3.org/2000/svg" shape-rendering="crispEdges">
<rect x="27" y="20" width="1" height="1" fill="#4B692F" />
<rect x="28" y="20" width="1" height="1" fill="#4B692F" />
<rect x="13" y="21" width="1" height="1" fill="#4B692F" />
<rect x="14" y="21" width="1" height="1" fill="#4B692F" />
<rect x="25" y="21" width="1" height="1" fill="#4B692F" />
<rect x="26" y="21" width="1" height="1" fill="#4B692F" />
<rect x="27" y="21" width="1" height="1" fill="#4B692F" />
<rect x="28" y="21" width="1" height="1" fill="#4B692F" />
<rect x="29" y="21" width="1" height="1" fill="#4B692F" />
<rect x="12" y="22" width="1" height="1" fill="#4B692F" />
<rect x="13" y="22" width="1" height="1" fill="#4B692F" />
<rect x="14" y="22" width="1" height="1" fill="#4B692F" />
<rect x="15" y="22" width="1" height="1" fill="#4B692F" />
<rect x="24" y="22" width="1" height="1" fill="#4B692F" />
<rect x="25" y="22" width="1" height="1" fill="#4B692F" />
<rect x="26" y="22" width="1" height="1" fill="#4B692F" />
<rect x="27" y="22" width="1" height="1" fill="#4B692F" />
<rect x="28" y="22" width="1" height="1" fill="#4B692F" />
<rect x="13" y="23" width="1" height="1" fill="#4B692F" />
<rect x="14" y="23" width="1" height="1" fill="#4B692F" />
<rect x="15" y="23" width="1" height="1" fill="#4B692F" />
<rect x="16" y="23" width="1" height="1" fill="#4B692F" />
<rect x="23" y="23" width="1" height="1" fill="#4B692F" />
<rect x="24" y="23" width="1" height="1" fill="#4B692F" />
<rect x="25" y="23" width="1" height="1" fill="#4B692F" />
<rect x="26" y="23" width="1" height="1" fill="#4B692F" />
<rect x="27" y="23" width="1" height="1" fill="#4B692F" />
<rect x="14" y="24" width="1" height="1" fill="#4B692F" />
<rect x="15" y="24" width="1" height="1" fill="#4B692F" />
<rect x="16" y="24" width="1" height="1" fill="#4B692F" />
<rect x="17" y="24" width="1" height="1" fill="#4B692F" />
<rect x="22" y="24" width="1" height="1" fill="#4B692F" />
<rect x="23" y="24" width="1" height="1" fill="#4B692F" />
<rect x="24" y="24" width="1" height="1" fill="#4B692F" />
<rect x="25" y="24" width="1" height="1" fill="#4B692F" />
<rect x="15" y="25" width="1" height="1" fill="#4B692F" />
<rect x="16" y="25" width="1" height="1" fill="#4B692F" />
<rect x="17" y="25" width="1" height="1" fill="#4B692F" />
<rect x="21" y="25" width="1" height="1" fill="#4B692F" />
<rect x="22" y="25" width="1" height="1" fill="#4B692F" />
<rect x="23" y="25" width="1" height="1" fill="#4B692F" />
<rect x="24" y="25" width="1" height="1" fill="#4B692F" />
<rect x="15" y="26" width="1" height="1" fill="#4B692F" />
<rect x="16" y="26" width="1" height="1" fill="#4B692F" />
<rect x="17" y="26" width="1" height="1" fill="#4B692F" />
<rect x="18" y="26" width="1" height="1" fill="#4B692F" />
<rect x="21" y="26" width="1" height="1" fill="#4B692F" />
<rect x="22" y="26" width="1" height="1" fill="#4B692F" />
<rect x="23" y="26" width="1" height="1" fill="#4B692F" />
<rect x="16" y="27" width="1" height="1" fill="#4B692F" />
<rect x="17" y="27" width="1" height="1" fill="#4B692F" />
<rect x="18" y="27" width="1" height="1" fill="#4B692F" />
<rect x="20" y="27" width="1" height="1" fill="#4B692F" />
<rect x="21" y="27" width="1" height="1" fill="#4B692F" />
<rect x="22" y="27" width="1" height="1" fill="#4B692F" />
<rect x="16" y="28" width="1" height="1" fill="#4B692F" />
<rect x="17" y="28" width="1" height="1" fill="#4B692F" />
<rect x="18" y="28" width="1" height="1" fill="#4B692F" />
<rect x="20" y="28" width="1" height="1" fill="#4B692F" />
<rect x="21" y="28" width="1" height="1" fill="#4B692F" />
<rect x="22" y="28" width="1" height="1" fill="#4B692F" />
<rect x="16" y="29" width="1" height="1" fill="#4B692F" />
<rect x="17" y="29" width="1" height="1" fill="#4B692F" />
<rect x="18" y="29" width="1" height="1" fill="#4B692F" />
<rect x="19" y="29" width="1" height="1" fill="#4B692F" />
<rect x="20" y="29" width="1" height="1" fill="#4B692F" />
<rect x="21" y="29" width="1" height="1" fill="#4B692F" />
<rect x="22" y="29" width="1" height="1" fill="#4B692F" />
<rect x="17" y="30" width="1" height="1" fill="#4B692F" />
<rect x="18" y="30" width="1" height="1" fill="#4B692F" />
<rect x="19" y="30" width="1" height="1" fill="#4B692F" />
<rect x="20" y="30" width="1" height="1" fill="#4B692F" />
<rect x="21" y="30" width="1" height="1" fill="#4B692F" />
<rect x="17" y="31" width="1" height="1" fill="#4B692F" />
<rect x="18" y="31" width="1" height="1" fill="#4B692F" />
<rect x="19" y="31" width="1" height="1" fill="#4B692F" />
<rect x="20" y="31" width="1" height="1" fill="#4B692F" />
<rect x="21" y="31" width="1" height="1" fill="#4B692F" />
<rect x="17" y="32" width="1" height="1" fill="#4B692F" />
<rect x="18" y="32" width="1" height="1" fill="#4B692F" />
<rect x="19" y="32" width="1" height="1" fill="#4B692F" />
<rect x="20" y="32" width="1" height="1" fill="#4B692F" />
<rect x="21" y="32" width="1" height="1" fill="#4B692F" />
<rect x="17" y="33" width="1" height="1" fill="#4B692F" />
<rect x="18" y="33" width="1" height="1" fill="#4B692F" />
<rect x="19" y="33" width="1" height="1" fill="#4B692F" />
<rect x="20" y="33" width="1" height="1" fill="#4B692F" />
<rect x="17" y="34" width="1" height="1" fill="#4B692F" />
<rect x="18" y="34" width="1" height="1" fill="#4B692F" />
<rect x="19" y="34" width="1" height="1" fill="#4B692F" />
<rect x="20" y="34" width="1" height="1" fill="#4B692F" />
<rect x="17" y="35" width="1" height="1" fill="#4B692F" />
<rect x="18" y="35" width="1" height="1" fill="#4B692F" />
<rect x="19" y="35" width="1" height="1" fill="#4B692F" />
<rect x="20" y="35" width="1" height="1" fill="#4B692F" />
<rect x="17" y="36" width="1" height="1" fill="#4B692F" />
<rect x="18" y="36" width="1" height="1" fill="#4B692F" />
<rect x="19" y="36" width="1" height="1" fill="#4B692F" />
<rect x="20" y="36" width="1" height="1" fill="#4B692F" />
<rect x="17" y="37" width="1" height="1" fill="#4B692F" />
<rect x="18" y="37" width="1" height="1" fill="#4B692F" />
<rect x="19" y="37" width="1" height="1" fill="#4B692F" />
<rect x="17" y="38" width="1" height="1" fill="#4B692F" />
<rect x="18" y="38" width="1" height="1" fill="#4B692F" />
<rect x="19" y="38" width="1" height="1" fill="#4B692F" />
<rect x="18" y="39" width="1" height="1" fill="#4B692F" />
</svg>